# xmcd CD database file
#
# Track frame offsets:
#	150
#	20137
#	41587
#	64124
#	83586
#	104736
#	126336
#	150036
#	169086
#
# Disc length: 2566 seconds
#
# Revision: 0
# Processed by: cddbd v1.5.1PL0 Copyright (c) Steve Scherf et al.
# Submitted via: CDex 1.51
#
DISCID=6d0a0409
DTITLE=サザンオールスターズ - Best
DYEAR=1900
DGENRE=J-Pop
TTITLE0=いとしのエリー
TTITLE1=Bye Bye My Love
TTITLE2=ミス･ブランニュー･デイ
TTITLE3=みんなのうた
TTITLE4=真夏の果実
TTITLE5=涙のキッス
TTITLE6=あなただけを 〜Summer Heartbreak〜
TTITLE7=太陽は罪な奴
TTITLE8=TSUNAMI
EXTD=
EXTT0=
EXTT1=
EXTT2=
EXTT3=
EXTT4=
EXTT5=
EXTT6=
EXTT7=
EXTT8=
PLAYORDER=
